<?xml version="1.0" encoding="UTF-8"?>
<svg version="1.1" xmlns="http://www.w3.org/2000/svg" width="53" height="51">
<path d="M0 0 C17.49 0 34.98 0 53 0 C53 16.83 53 33.66 53 51 C35.51 51 18.02 51 0 51 C0 34.17 0 17.34 0 0 Z " fill="#165EFC" transform="translate(0,0)"/>
<path d="M0 0 C17.49 0 34.98 0 53 0 C53 16.83 53 33.66 53 51 C35.51 51 18.02 51 0 51 C0 34.17 0 17.34 0 0 Z M5 9 C2.727948 13.544104 3.6349384 19.69924217 3.5625 24.6875 C3.51673828 25.95529297 3.47097656 27.22308594 3.42382812 28.52929688 C3.21593132 36.52560342 3.21593132 36.52560342 6.90234375 43.33203125 C12.25347688 48.47318836 18.62874854 47.33499435 25.6875 47.4375 C26.95529297 47.48326172 28.22308594 47.52902344 29.52929688 47.57617188 C37.52560342 47.78406868 37.52560342 47.78406868 44.33203125 44.09765625 C49.47318836 38.74652312 48.33499435 32.37125146 48.4375 25.3125 C48.50614258 23.41081055 48.50614258 23.41081055 48.57617188 21.47070312 C48.78406868 13.47439658 48.78406868 13.47439658 45.09765625 6.66796875 C39.74652312 1.52681164 33.37125146 2.66500565 26.3125 2.5625 C25.04470703 2.51673828 23.77691406 2.47097656 22.47070312 2.42382812 C14.87721212 2.33243603 9.77581209 2.66850157 5 9 Z " fill="#FDFDFE" transform="translate(0,0)"/>
<path d="M0 0 C7.35678392 -0.36180905 7.35678392 -0.36180905 10 1.125 C11.504106 3.94519875 11.44912849 5.85610056 11 9 C9.4375 11.375 9.4375 11.375 7 13 C3.25 13.25 3.25 13.25 0 13 C0 8.71 0 4.42 0 0 Z " fill="#FFFFFF" transform="translate(26,19)"/>
<path d="M0 0 C6.0546875 -0.1953125 6.0546875 -0.1953125 8 0 C8.66 0.66 9.32 1.32 10 2 C9.625 3.9375 9.625 3.9375 9 6 C9 9.10551666 9.5393715 10.35261084 11 13 C7.20411134 12.45773019 5.52788007 10.79872437 3 8 C3 9.65 3 11.3 3 13 C2.01 13 1.02 13 0 13 C0 8.71 0 4.42 0 0 Z " fill="#DEE8FE" transform="translate(14,19)"/>
<path d="M0 0 C4 1 4 1 5 2 C5.1875 4.4375 5.1875 4.4375 5 7 C4.34 7.66 3.68 8.32 3 9 C2.01 9 1.02 9 0 9 C0 6.03 0 3.06 0 0 Z " fill="#155DFC" transform="translate(29,21)"/>
</svg>
